General                          : ChattChitoo RG - Movies
==========
Complete name                    : Fantastic Mr. Fox 2009 BDRip.mp4
Format                           : MPEG-4
Format profile                   : Base Media
Codec ID                         : isom
File size                        : 1.60 GiB
Duration                         : 1h 26mn
Overall bit rate                 : 2 641 Kbps
Encoded date                     : UTC 2010-03-30 12:10:41

Video
==========
ID                               : 1
Format                           : AVC
Format/Info                      : Advanced Video Codec
Format profile                   : High@L3.1
Format settings, CABAC           : Yes
Format settings, ReFrames        : 3 frames
Codec ID                         : avc1
Codec ID/Info                    : Advanced Video Coding
Duration                         : 1h 26mn
Bit rate mode                    : Variable
Bit rate                         : 2 300 Kbps
Maximum bit rate                 : 19.8 Mbps
Width                            : 1 280 pixels
Height                           : 688 pixels
Display aspect ratio             : 1.860
Frame rate mode                  : Constant
Frame rate                       : 23.976 fps
Resolution                       : 8 bits
Colorimetry                      : 4:2:0
Scan type                        : Progressive
Bits/(Pixel*Frame)               : 0.109
Stream size                      : 1.39 GiB (87%)
Writing library                  : x264 core 76 r1271 496d79d
Encoded date                     : UTC 2010-03-30 06:32:44

Audio
==========
ID                               : 2
Format                           : AAC
Format/Info                      : Advanced Audio Codec
Format version                   : Version 4
Format profile                   : LC
Format settings, SBR             : No
Codec ID                         : 40
Duration                         : 1h 26mn
Bit rate mode                    : Variable
Bit rate                         : 338 Kbps
Maximum bit rate                 : 472 Kbps
Channel(s)                       : 6 channels
Channel positions                : Front: L C R, Side: L R, LFE
Sampling rate                    : 48.0 KHz
Stream size                      : 210 MiB (13%)
Encoded date                     : UTC 2010-03-30 12:11:31

Subtitles                        : English | Spanish | French | Portuguese [.srt]/Cantonese | Mandarin [.sup]




----------------------------------------------------
IMDB Link: http://www.imdb.com/title/tt0432283/
----------------------------------------------------


Screen Shots:
============== 
http://bayimg.com/aAllcAACJ 
http://bayimg.com/AAlLbaaCj 
http://bayimg.com/aALlAAacJ 
http://bayimg.com/PalKoAACj 
http://bayimg.com/palKnaAcJ


Plot:
======
Mr. and Mrs. Fox live an idyllic home life with their son Ash and visiting young nephew Kristopherson. But after 12 years, the bucolic existence proves too much for Mr Fox's wild animal instincts. Soon he slips back into his old ways as a sneaky chicken thief and in doing so, endangers not only his beloved family, but the whole animal community. Trapped underground and with not enough food to go around, the animals band together to fight against the evil Farmers -- Boggis, Bunce and Bean -- who are determined to capture the audacious, fantastic Mr. Fox at any cost.



Release Info:
==============
original name .... : Fantastic Mr. Fox 2009 BDRip.mp4
ripper.............: Recalled2Life (R2L)
encoder............: Recalled2Life (R2L)
video codec........: H264/.MP4                   
video bitrate......: 2300 Kbps                           
audio codec........: AAC-LC	                                        
aspect ratio.......: 1.860                              
resolution.........: 1280 x 688                        
genre..............: Animation | Adventure | Comedy | Family         
runtime............: 1h 26mn  
language...........: English                              
subtitles..........: English | Spanish | French | Portuguese [.srt]/Cantonese | Mandarin [.sup]
2ch Audio..........: 2ch Audio for XBox Viewers 



Source:
========
Fantastic Mr. Fox 2009 Blu-Ray 1080p MPEG-4 AVC/DTS-HD 5.1 [17.2 GB]


Notes:
=======
ChattChitto RG Encourages Burning this Film with ConvertXtoDVD.
Enhanced and Filtered for your viewing pleasure ;)